<?xml version="1.0" encoding="iso-8859-1"?>
<!-- Generator: Adobe Illustrator 18.0.0, SVG Export Plug-In . SVG Version: 6.00 Build 0)  -->
<!DOCTYPE svg PUBLIC "-//W3C//DTD SVG 1.1//EN" "http://www.w3.org/Graphics/SVG/1.1/DTD/svg11.dtd">
<svg version="1.1" id="_x33_" xmlns="http://www.w3.org/2000/svg" xmlns:xlink="http://www.w3.org/1999/xlink" x="0px" y="0px"
	 viewBox="0 0 512 512" style="enable-background:new 0 0 512 512;" xml:space="preserve">
<g>
	<rect style="fill:#CB98C3;" width="512" height="512"/>
	<polygon style="opacity:0.1;fill:#231815;" points="512,183.5 512,512 281.19,512 176.845,407.605 171.673,402.43 117.862,348.62 
		168.705,312.885 48.895,193.075 112.64,172.7 201.88,144.18 290.1,232.45 400.69,162.355 407.605,157.95 455.885,127.385 	"/>
	<g>
		<g>
			<g>
				<path style="fill:#BBAA7F;" d="M124.287,125.685c21.27,18.05,23.88,49.93,5.828,71.205
					c-18.058,21.27-49.937,23.885-71.207,5.825c-21.278-18.055-28.885-53.955-10.72-75.36
					C67.385,104.735,103.015,107.63,124.287,125.685z"/>
				<path style="fill:#231815;" d="M108.1,178.21c-7.722,9.1-21.412,10.22-30.515,2.495c-10.198-8.65-14.065-26.795-7.388-34.665
					c7.888-9.3,25.513-6.75,35.408,1.655C114.71,155.42,115.83,169.105,108.1,178.21z"/>
			</g>
			<g>
				<path style="fill:#BBAA7F;" d="M379.78,125.685c-21.27,18.05-23.89,49.93-5.83,71.205c18.055,21.27,49.94,23.885,71.21,5.825
					c21.275-18.055,28.885-53.955,10.72-75.36C436.68,104.735,401.055,107.63,379.78,125.685z"/>
				<path style="fill:#231815;" d="M395.96,178.21c7.725,9.1,21.415,10.22,30.515,2.495c10.205-8.65,14.065-26.795,7.395-34.665
					c-7.89-9.3-25.515-6.75-35.41,1.655C389.355,155.42,388.235,169.105,395.96,178.21z"/>
			</g>
		</g>
		<path style="fill:#D0B27C;" d="M424.705,193.205c-14.245-45.42-57.78-81.48-101.12-85.665c-33.91-3.275-57.95,3.76-71.555,11.32
			c-13.6-7.56-37.64-14.595-71.555-11.32c-43.345,4.185-86.868,40.245-101.115,85.665C63.805,242.8,61.898,305.55,144.697,373.36
			c48.297,39.55,77.777,43.775,107.333,43.775c29.56,0,59.035-4.225,107.34-43.775C442.165,305.55,440.265,242.8,424.705,193.205z"
			/>
		<polygon style="fill:#231815;" points="302.555,286.595 252.03,293.665 201.505,286.595 197.9,379.445 252.03,379.445 
			306.165,379.445 		"/>
		<g>
			<path style="fill:#FDFCE8;" d="M205.515,293.64c0,0,1.605,28.865,6.425,32.075c4.81,3.21,12.83-11.23,12.83-11.23h27.26v-22.45
				L205.515,293.64z"/>
			<path style="fill:#FDFCE8;" d="M298.545,293.64c0,0-1.605,28.865-6.41,32.075c-4.815,3.21-12.83-11.23-12.83-11.23H252.03v-22.45
				L298.545,293.64z"/>
		</g>
		<path style="fill:#FDFCE8;" d="M292.135,349.435c-4.815-3.205-12.83,11.23-12.83,11.23H252.03h-27.26c0,0-8.02-14.435-12.83-11.23
			c-4.82,3.205-6.425,24.4-6.425,24.4h93.03C298.545,373.835,296.94,352.64,292.135,349.435z"/>
		<path style="fill:#BB9876;" d="M252.03,194.195c-25.655,0-59.345,35.68-59.345,79.665c0,43.99,59.345,29.73,59.345,29.73
			s59.345,14.26,59.345-29.73C311.375,229.875,277.695,194.195,252.03,194.195z"/>
		<path style="fill:#231815;" d="M221.555,221.465c0,16.83,13.65,30.475,30.475,30.475c16.83,0,30.48-13.645,30.48-30.475
			c0-16.825-13.65-20.845-30.48-20.845C235.205,200.62,221.555,204.64,221.555,221.465z"/>
		<g>
			<path style="fill:#231815;" d="M164.7,218.64c0,3.105-3.893,5.635-8.703,5.635h-8.413c-4.805,0-8.703-2.53-8.703-5.635v-15.205
				c0-3.105,3.897-5.63,8.703-5.63h8.413c4.81,0,8.703,2.525,8.703,5.63V218.64z"/>
			<path style="fill:#231815;" d="M365.18,218.64c0,3.105-3.89,5.635-8.71,5.635h-8.405c-4.805,0-8.71-2.53-8.71-5.635v-15.205
				c0-3.105,3.905-5.63,8.71-5.63h8.405c4.82,0,8.71,2.525,8.71,5.63V218.64z"/>
		</g>
		<path style="opacity:0.09;fill:#231815;" d="M455.88,127.355c-19.2-22.62-54.825-19.725-76.1-1.67
			c-1.06,0.895-2.06,1.835-3.03,2.8c-16.245-11.595-34.715-19.17-53.165-20.945c-33.91-3.275-57.95,3.76-71.555,11.32v298.275
			c29.56,0,59.035-4.225,107.34-43.775c72.8-59.625,80.109-115.33,70.245-161.63c5.53-1.99,10.8-4.99,15.545-9.015
			C466.435,184.66,474.045,148.76,455.88,127.355z"/>
	</g>
</g>
</svg>
